# xmcd
# 
# Track frame offsets:
#     150
#     20375
#     39262
#     52750
#     81787
#     97837
#     120675
#     136187
#     160512
#     178162
#     194312
#     202737
# 
# Disc length: 2971
# 
# Revision: 4
# Processed by: cddbd v1.5.2PL0 Copyright (c) Steve Scherf et al.
# Submitted via: fre:ac v1.0.31
# 
DISCID=850b990c
DTITLE=Snowy White's Blues Agency - Change My Life
DYEAR=2009
DGENRE=Blue-Rock
TTITLE0=Woke Up This Morning
TTITLE1=The Thrill Is Gone
TTITLE2=You Know It Ain't Right
TTITLE3=Change My Life
TTITLE4=The Agency Blues
TTITLE5=Judgement Day
TTITLE6=Ooh-Wee Baby
TTITLE7=The Rest Of My Life
TTITLE8=Parchman Farm
TTITLE9=The Agency Shuffle
TTITLE10=Another Man
TTITLE11=No Place To Go
EXTD=
EXTT0=
EXTT1=
EXTT2=
EXTT3=
EXTT4=
EXTT5=
EXTT6=
EXTT7=
EXTT8=
EXTT9=
EXTT10=
EXTT11=
PLAYORDER=
